<?xml version="1.0" encoding="utf-8"?>
<svg viewBox="610.884 -25.972 280.28 304.822" xmlns="http://www.w3.org/2000/svg">
  <defs>
    <linearGradient id="linear-gradient" x1="198.25" y1="387.89" x2="424.54" y2="213.95" gradientUnits="userSpaceOnUse" gradientTransform="matrix(0.673444, 0, 0, 0.673444, 536.004318, -92.743988)">
      <stop offset="0" stop-color="#92c83e"/>
      <stop offset="1" stop-color="#1ba8e0"/>
    </linearGradient>
  </defs>
  <path class="cls-1" d="M 842.421 108.367 C 841.085 108.358 839.834 107.712 839.054 106.629 L 751.884 -14.624 L 684.835 78.627 C 684.054 79.711 682.804 80.356 681.468 80.364 L 660.625 80.364 C 657.408 80.494 655.258 77.092 656.754 74.242 C 657.505 72.812 659.012 71.943 660.625 72.007 L 679.3 72.007 L 748.496 -24.228 C 749.275 -25.314 750.527 -25.962 751.863 -25.972 L 751.863 -25.972 C 753.199 -25.958 754.448 -25.311 755.231 -24.228 L 845.788 101.753 C 847.67 104.352 846.033 108.014 842.841 108.344 C 842.701 108.358 842.561 108.366 842.421 108.367 Z M 782.485 47.413 C 782.485 45.103 780.613 43.23 778.303 43.23 L 724.899 43.23 C 721.679 43.23 719.667 46.716 721.276 49.504 C 722.024 50.797 723.405 51.595 724.899 51.595 L 778.33 51.595 C 780.628 51.58 782.485 49.712 782.485 47.413 Z M 767.077 18.63 C 767.073 16.325 765.205 14.458 762.901 14.455 L 740.306 14.455 C 737.09 14.325 734.94 17.727 736.437 20.577 C 737.187 22.007 738.693 22.877 740.306 22.812 L 762.955 22.812 C 765.251 22.793 767.103 20.926 767.103 18.63 Z M 805.84 76.189 C 805.84 73.88 803.967 72.007 801.657 72.007 L 777.838 72.007 C 774.621 72.136 772.751 75.699 774.471 78.421 C 775.206 79.583 776.464 80.309 777.838 80.364 L 801.685 80.364 C 803.993 80.368 805.867 78.497 805.867 76.189 Z M 762.975 76.189 C 762.975 73.88 761.102 72.007 758.793 72.007 L 703.503 72.007 C 700.287 71.878 698.136 75.279 699.632 78.129 C 700.383 79.559 701.89 80.429 703.503 80.364 L 758.82 80.364 C 761.128 80.368 763.002 78.497 763.002 76.189 Z M 820.016 105.006 C 820.016 102.699 818.147 100.828 815.84 100.824 L 712.359 100.824 C 709.142 100.953 707.272 104.516 708.991 107.237 C 709.726 108.4 710.985 109.126 712.359 109.181 L 815.867 109.181 C 818.172 109.178 820.039 107.311 820.042 105.006 Z M 696.776 105.006 C 696.776 102.699 694.907 100.828 692.6 100.824 L 660.612 100.824 C 657.395 100.695 655.244 104.096 656.741 106.946 C 657.491 108.376 658.999 109.246 660.612 109.181 L 692.6 109.181 C 694.91 109.185 696.785 107.315 696.789 105.006 Z M 846.556 133.728 C 846.552 131.417 844.678 129.546 842.367 129.546 L 729.283 129.546 C 726.066 129.417 723.916 132.819 725.412 135.669 C 726.163 137.099 727.669 137.968 729.283 137.904 L 842.354 137.904 C 844.674 137.922 846.566 136.049 846.57 133.728 Z M 711.349 133.728 C 711.349 131.418 709.476 129.546 707.167 129.546 L 660.625 129.546 C 657.408 129.417 655.258 132.819 656.754 135.669 C 657.505 137.099 659.012 137.968 660.625 137.904 L 707.18 137.904 C 709.489 137.908 711.362 136.037 711.362 133.728 Z M 846.556 162.538 C 846.556 160.229 844.683 158.356 842.374 158.356 L 660.625 158.356 C 657.408 158.227 655.258 161.628 656.754 164.479 C 657.505 165.909 659.012 166.779 660.625 166.713 L 842.421 166.713 C 844.716 166.699 846.57 164.834 846.57 162.538 Z" style="fill: url(#linear-gradient);"/>
  <path class="cls-2" d="M 649.294 244.741 L 649.294 257.741 L 610.884 257.741 L 610.884 193.861 L 626.044 193.861 L 626.044 244.741 Z" style="fill: rgb(31, 35, 43);"/>
  <path class="cls-2" d="M 671.364 255.821 C 667.657 253.717 664.655 250.565 662.734 246.761 C 658.853 238.637 658.853 229.195 662.734 221.071 C 664.655 217.267 667.657 214.115 671.364 212.011 C 680.13 207.571 690.487 207.571 699.254 212.011 C 702.953 214.111 705.944 217.265 707.844 221.071 C 711.658 229.21 711.658 238.622 707.844 246.761 C 705.944 250.567 702.953 253.721 699.254 255.821 C 690.484 260.247 680.134 260.247 671.364 255.821 Z M 692.894 243.391 C 694.6 241.204 695.457 238.031 695.464 233.871 C 695.47 229.711 694.614 226.568 692.894 224.441 C 691.174 222.248 688.66 221.151 685.354 221.151 C 682.047 221.151 679.49 222.248 677.684 224.441 C 675.944 226.634 675.074 229.778 675.074 233.871 C 675.074 237.964 675.944 241.138 677.684 243.391 C 679.424 245.578 681.98 246.674 685.354 246.681 C 688.727 246.688 691.24 245.591 692.894 243.391 Z" style="fill: rgb(31, 35, 43);"/>
  <path class="cls-2" d="M 770.184 186.441 L 770.184 257.711 L 755.524 257.711 L 755.524 254.591 C 751.886 257.504 747.374 259.107 742.714 259.141 C 738.754 259.219 734.845 258.246 731.384 256.321 C 728.001 254.332 725.299 251.365 723.634 247.811 C 719.874 238.926 719.874 228.896 723.634 220.011 C 725.299 216.46 728.001 213.497 731.384 211.511 C 734.842 209.579 738.753 208.602 742.714 208.681 C 747.373 208.72 751.884 210.323 755.524 213.231 L 755.524 186.441 Z M 755.524 242.721 L 755.524 225.111 C 752.769 222.967 749.403 221.759 745.914 221.661 C 742.667 221.661 740.21 222.698 738.544 224.771 C 736.877 226.844 736.05 229.878 736.064 233.871 C 736.064 237.871 736.894 240.981 738.544 243.051 C 740.194 245.121 742.664 246.171 745.914 246.171 C 749.403 246.074 752.769 244.865 755.524 242.721 Z" style="fill: rgb(31, 35, 43);"/>
  <path class="cls-2" d="M 832.184 210.011 L 832.184 257.521 C 832.242 261.314 831.359 265.063 829.614 268.431 C 827.892 271.664 825.255 274.318 822.034 276.061 C 818.336 277.995 814.205 278.952 810.034 278.841 C 806.007 278.87 801.982 278.643 797.984 278.161 C 794.648 277.749 791.37 276.957 788.214 275.801 L 788.214 262.341 C 791.109 263.558 794.126 264.463 797.214 265.041 C 799.906 265.567 802.641 265.849 805.384 265.881 C 809.594 265.881 812.674 265.101 814.604 263.521 C 816.597 261.835 817.676 259.307 817.514 256.701 L 817.514 252.911 C 813.874 255.82 809.363 257.422 804.704 257.461 C 798.037 257.461 792.704 255.481 788.704 251.521 C 784.704 247.561 782.74 241.391 782.814 233.011 C 782.671 228.383 783.637 223.789 785.634 219.611 C 787.333 216.158 790.034 213.297 793.384 211.401 C 796.862 209.53 800.764 208.586 804.714 208.661 C 809.373 208.7 813.884 210.303 817.524 213.211 L 817.524 210.011 Z M 817.524 241.011 L 817.524 225.111 C 814.772 222.969 811.409 221.76 807.924 221.661 C 804.664 221.661 802.204 222.628 800.544 224.561 C 798.884 226.494 798.05 229.311 798.044 233.011 C 798.044 237.224 798.844 240.188 800.444 241.901 C 802.044 243.614 804.53 244.471 807.904 244.471 C 811.397 244.372 814.768 243.16 817.524 241.011 Z" style="fill: rgb(31, 35, 43);"/>
  <path class="cls-2" d="M 864.824 244.741 C 866.764 246.248 869.614 247.004 873.374 247.011 C 875.493 247.023 877.605 246.754 879.654 246.211 C 882.027 245.532 884.326 244.614 886.514 243.471 L 890.304 254.761 C 887.591 256.313 884.667 257.461 881.624 258.171 C 878.247 258.88 874.803 259.216 871.354 259.171 C 866.431 259.318 861.549 258.232 857.154 256.011 C 853.362 254.019 850.265 250.923 848.274 247.131 C 844.199 238.614 844.229 228.704 848.354 220.211 C 850.268 216.592 853.194 213.608 856.774 211.621 C 860.421 209.654 864.51 208.653 868.654 208.711 C 875.674 208.711 881.177 210.748 885.164 214.821 C 889.15 218.894 891.15 224.834 891.164 232.641 L 891.164 238.451 L 861.044 238.451 C 861.525 240.927 862.864 243.154 864.824 244.741 Z M 863.724 222.331 C 862.464 223.338 861.58 225.078 861.074 227.551 L 875.734 227.551 C 875.694 225.643 874.958 223.814 873.664 222.411 C 872.261 221.262 870.473 220.69 868.664 220.811 C 866.891 220.732 865.145 221.269 863.724 222.331 Z" style="fill: rgb(31, 35, 43);"/>
</svg>