<?xml version="1.0" encoding="utf-8"?>
<svg viewBox="-14.652 -10.327 527.75 560.069" xmlns="http://www.w3.org/2000/svg">
  <polygon style="fill: rgb(255, 255, 255); stroke: rgba(0, 0, 0, 0);" points="335.901 414.718 428.043 373.235 482.463 421.374 468.483 516.886 422.165 516.886 324.332 454.598"/>
  <rect x="34.775" y="24.809" width="432.653" height="435.064" rx="19" ry="19" style="fill: rgb(255, 255, 255); stroke: rgb(255, 255, 255);"/>
  <g transform="matrix(1, 0, 0, 1, -84.653229, -10.329516)">
    <path d="M 330 185.317 C 322.746 185.317 315.793 182.434 310.664 177.309 C 305.535 172.18 302.656 165.223 302.656 157.973 L 302.656 145.125 C 302.656 135.356 307.867 126.328 316.328 121.445 C 324.789 116.558 335.211 116.558 343.672 121.445 C 352.133 126.328 357.344 135.355 357.344 145.125 L 357.344 157.973 C 357.344 165.223 354.465 172.18 349.336 177.309 C 344.208 182.434 337.254 185.317 330 185.317 L 330 185.317 Z"/>
    <path d="M 330 379.88 C 322.746 379.88 315.793 377.001 310.664 371.872 C 305.535 366.743 302.656 359.79 302.656 352.536 L 302.656 241.886 C 302.656 232.117 307.867 223.089 316.328 218.206 C 324.789 213.323 335.211 213.323 343.672 218.206 C 352.133 223.089 357.344 232.116 357.344 241.886 L 357.344 352.536 C 357.344 359.79 354.465 366.743 349.336 371.872 C 344.208 377.001 337.254 379.88 330 379.88 Z"/>
    <path d="M 533.74 560.07 C 521.904 560.039 510.314 556.703 500.271 550.437 L 422.091 502.187 L 197.001 502.187 C 163.333 502.148 131.052 488.757 107.239 464.945 C 83.43 441.136 70.04 408.855 70.001 375.183 L 70.001 127.003 C 70.04 93.335 83.431 61.054 107.239 37.241 C 131.051 13.432 163.333 0.042 197.001 0.003 L 470.751 0.003 C 504.419 0.042 536.7 13.433 560.513 37.241 C 584.322 61.053 597.712 93.335 597.751 127.003 L 597.751 399 C 597.751 408.77 592.54 417.797 584.079 422.68 C 575.618 427.567 565.196 427.567 556.735 422.68 C 548.274 417.797 543.063 408.77 543.063 399 L 543.063 127.003 C 543.039 107.831 535.414 89.452 521.86 75.894 C 508.301 62.339 489.922 54.714 470.751 54.691 L 197.001 54.691 C 177.829 54.715 159.45 62.34 145.892 75.894 C 132.337 89.453 124.712 107.832 124.689 127.003 L 124.689 375.183 C 124.712 394.359 132.337 412.738 145.892 426.296 C 159.451 439.851 177.83 447.476 197.001 447.499 L 429.841 447.499 C 434.915 447.499 439.884 448.909 444.2 451.573 L 528.981 503.897 L 528.985 503.897 C 531.797 505.636 535.329 505.714 538.215 504.101 C 541.106 502.491 542.895 499.444 542.895 496.14 L 542.883 384.05 C 542.883 374.28 548.094 365.253 556.555 360.37 C 565.016 355.483 575.438 355.483 583.899 360.37 C 592.36 365.252 597.571 374.28 597.571 384.05 L 597.583 496.15 L 597.583 496.146 C 597.661 507.525 594.665 518.708 588.903 528.521 C 583.142 538.329 574.833 546.396 564.86 551.869 C 555.357 557.22 544.641 560.045 533.735 560.072 L 533.74 560.07 Z"/>
  </g>
</svg>